HIERARCHY
ROOT Hips
{
    OFFSET 0.000000 0.000000 0.000000
    CHANNELS 6 Xposition Yposition Zposition Zrotation Xrotation Yrotation
    JOINT Spine
    {
        OFFSET -0.000000 14.517291 0.000000
        CHANNELS 3 Zrotation Xrotation Yrotation
        JOINT Spine1
        {
            OFFSET -0.000000 37.558300 0.000000
            CHANNELS 3 Zrotation Xrotation Yrotation
            JOINT Neck
            {
                OFFSET -0.000000 37.404057 3.400369
                CHANNELS 3 Zrotation Xrotation Yrotation
                JOINT Head
                {
                    OFFSET -0.000000 24.785618 -3.540803
                    CHANNELS 3 Zrotation Xrotation Yrotation
                    End Site
                    {
                        OFFSET -0.000000 35.408028 0.000000
                    }
                }
            }
            JOINT LeftShoulder
            {
                OFFSET 6.992933 33.973492 -0.192664
                CHANNELS 3 Zrotation Xrotation Yrotation
                JOINT LeftArm
                {
                    OFFSET 21.527611 0.000000 0.000000
                    CHANNELS 3 Zrotation Xrotation Yrotation
                    JOINT LeftForeArm
                    {
                        OFFSET 56.353916 0.000000 0.000000
                        CHANNELS 3 Zrotation Xrotation Yrotation
                        JOINT LeftHand
                        {
                            OFFSET 47.774071 0.000000 0.000000
                            CHANNELS 3 Zrotation Xrotation Yrotation
                            End Site
                            {
                                OFFSET 26.556021 0.000000 0.000000
                            }
                        }
                    }
                }
            }
            JOINT RightShoulder
            {
                OFFSET -7.065357 33.973492 -0.192664
                CHANNELS 3 Zrotation Xrotation Yrotation
                JOINT RightArm
                {
                    OFFSET -21.527611 0.000000 0.000000
                    CHANNELS 3 Zrotation Xrotation Yrotation
                    JOINT RightForeArm
                    {
                        OFFSET -56.353916 0.000000 0.000000
                        CHANNELS 3 Zrotation Xrotation Yrotation
                        JOINT RightHand
                        {
                            OFFSET -47.774071 0.000000 0.000000
                            CHANNELS 3 Zrotation Xrotation Yrotation
                            End Site
                            {
                                OFFSET -26.556021 0.000000 0.000000
                            }
                        }
                    }
                }
            }
        }
    }
    JOINT LeftUpLeg
    {
        OFFSET 17.704014 0.000000 0.000000
        CHANNELS 3 Zrotation Xrotation Yrotation
        JOINT LeftLeg
        {
            OFFSET -0.000000 -81.181816 0.000000
            CHANNELS 3 Zrotation Xrotation Yrotation
            JOINT LeftFoot
            {
                OFFSET -0.000000 -62.821102 0.000000
                CHANNELS 3 Zrotation Xrotation Yrotation
                JOINT LeftToeBase
                {
                    OFFSET -0.000000 -11.507608 26.556021
                    CHANNELS 3 Zrotation Xrotation Yrotation
                    End Site
                    {
                        OFFSET -0.000000 0.000000 7.081605
                    }
                }
            }
        }
    }
    JOINT RightUpLeg
    {
        OFFSET -17.704014 0.000000 0.000000
        CHANNELS 3 Zrotation Xrotation Yrotation
        JOINT RightLeg
        {
            OFFSET -0.000000 -81.181816 0.000000
            CHANNELS 3 Zrotation Xrotation Yrotation
            JOINT RightFoot
            {
                OFFSET -0.000000 -62.821102 0.000000
                CHANNELS 3 Zrotation Xrotation Yrotation
                JOINT RightToeBase
                {
                    OFFSET -0.000000 -11.507608 26.556021
                    CHANNELS 3 Zrotation Xrotation Yrotation
                    End Site
                    {
                        OFFSET -0.000000 0.000000 7.081605
                    }
                }
            }
        }
    }
}
MOTION
Frames:    11
Frame Time:    0.008333
23.516590    129.198853    13.388759    6.261813    4.492908    -61.015045    0.205663    4.658474    -0.776292    0.206449    -2.897594    -0.252177    18.795494    6.267110    14.207921    -12.882195    -1.278648    11.086383    11.694728    3.043110    -16.037043    -7.219955    -5.645988    -20.279589    11.676292    -0.172159    -46.741108    -4.187300    6.634930    -45.470036    -7.575960    -2.018680    -5.740452    29.065084    -24.836666    41.923656    4.410014    -24.740768    101.078186    17.742695    -24.928408    32.147392    55.040180    -29.988279    28.220953    -32.634457    38.934441    4.306128    -13.440682    -5.641333    42.888760    0.000000    0.000000    0.000000    -43.359520    -20.227612    -24.845053    5.694022    49.486492    -6.590704    27.124226    -12.206362    8.737416    0.000000    0.000000    0.000000    
23.532125    129.213928    13.392819    6.267633    4.511396    -61.022282    0.223834    4.672573    -0.783929    0.194272    -2.930279    -0.254730    18.829828    6.255082    14.200995    -12.903726    -1.250381    11.073639    11.718497    3.036834    -16.038799    -7.205983    -5.625110    -20.279421    11.651143    -0.195563    -46.704140    -4.241416    6.616092    -45.404556    -7.582083    -2.038079    -5.737977    29.006229    -24.833969    41.865425    4.425311    -24.770102    101.019951    17.781858    -24.957392    32.158669    55.048248    -29.996777    28.222307    -32.620464    38.927391    4.299042    -13.442564    -5.645428    42.885464    0.000000    0.000000    0.000000    -43.352654    -20.214668    -24.864841    5.710893    49.420845    -6.622514    27.121376    -12.156310    8.786300    0.000000    0.000000    0.000000    
23.546934    129.228180    13.391722    6.277534    4.533440    -61.029793    0.240711    4.676611    -0.789187    0.183353    -2.953100    -0.256472    18.838348    6.237731    14.193772    -12.877961    -1.226480    11.068821    11.735735    3.034985    -16.047459    -7.184248    -5.654151    -20.280355    11.619918    -0.160219    -46.647411    -4.235396    6.628481    -45.406410    -7.586792    -2.050567    -5.742763    28.975039    -24.870031    41.827568    4.445668    -24.754930    100.957886    17.829756    -24.943653    32.178234    55.064701    -30.010157    28.237993    -32.608025    38.926399    4.278078    -13.451891    -5.656264    42.908329    0.000000    0.000000    0.000000    -43.342045    -20.206314    -24.909883    5.688806    49.361515    -6.602835    27.134300    -12.117943    8.826584    0.000000    0.000000    0.000000    
23.556971    129.240616    13.381783    6.274669    4.562428    -61.028091    0.261255    4.689362    -0.800070    0.181973    -2.970094    -0.259784    18.864101    6.208830    14.195035    -12.890961    -1.187552    11.065011    11.758039    3.012891    -16.060637    -7.173554    -5.622719    -20.270372    11.571724    -0.249998    -46.566353    -4.204150    6.512940    -45.807785    -7.596232    -2.073369    -5.749116    28.941599    -24.869740    41.775612    4.327971    -24.815826    100.805153    18.140434    -24.770954    32.221786    55.089664    -30.018538    28.236433    -32.599110    38.905140    4.262236    -13.453561    -5.646495    42.932076    0.000000    0.000000    0.000000    -43.313480    -20.186541    -24.931887    5.679620    49.301342    -6.588388    27.165808    -12.092137    8.856711    0.000000    0.000000    0.000000    
23.566406    129.252701    13.369330    6.279210    4.588696    -61.022743    0.274012    4.701307    -0.813904    0.186301    -2.994729    -0.264060    18.856508    6.169939    14.183296    -12.862507    -1.137521    11.056551    11.768416    3.002406    -16.069321    -7.164519    -5.624210    -20.268553    11.559983    -0.257379    -46.518204    -4.194978    6.491139    -45.811844    -7.612605    -2.084813    -5.757260    28.920069    -24.889744    41.736984    4.340368    -24.794947    100.777328    18.111851    -24.771351    32.208439    55.109894    -30.036945    28.241848    -32.573826    38.897633    4.223528    -13.474738    -5.647293    42.948967    0.000000    0.000000    0.000000    -43.294800    -20.165773    -24.969851    5.668917    49.241035    -6.558734    27.184071    -12.067580    8.893772    0.000000    0.000000    0.000000    
23.578558    129.265350    13.355626    6.287816    4.625086    -61.011292    0.301116    4.700420    -0.830181    0.179829    -3.010145    -0.269198    18.826876    6.053680    14.184409    -12.768494    -0.985485    11.071380    11.779735    2.982355    -16.085207    -7.157325    -5.605603    -20.266857    11.586548    -0.268331    -46.455494    -4.187243    6.479773    -45.786503    -7.619635    -2.089154    -5.769481    28.898157    -24.911289    41.703213    4.357656    -24.780575    100.764153    18.103220    -24.775913    32.216881    55.136688    -30.063316    28.263817    -32.544426    38.889297    4.205055    -13.475039    -5.642161    42.937607    0.000000    0.000000    0.000000    -43.271568    -20.147907    -24.997751    5.687008    49.181396    -6.571620    27.176292    -12.057395    8.928779    0.000000    0.000000    0.000000    
23.592501    129.280472    13.335186    6.304099    4.659447    -60.999092    0.309747    4.697386    -0.855265    0.182699    -3.018627    -0.277348    18.876118    6.127702    14.179559    -12.856968    -1.107645    11.047577    11.802618    2.977148    -16.073277    -7.156167    -5.636442    -20.281456    11.574444    -0.263845    -46.408653    -4.165759    6.465471    -45.815086    -7.616313    -2.132778    -5.760563    28.870640    -24.916220    41.651272    4.385648    -24.763363    100.772514    18.107151    -24.789225    32.216396    55.162712    -30.094643    28.282249    -32.518063    38.869221    4.196783    -13.499774    -5.621105    42.936977    0.000000    0.000000    0.000000    -43.248966    -20.143147    -25.044561    5.664915    49.132824    -6.524914    27.192549    -12.049018    8.929209    0.000000    0.000000    0.000000    
23.605387    129.295654    13.320628    6.315701    4.678783    -60.986496    0.314042    4.697007    -0.872531    0.188688    -3.016845    -0.282912    18.815908    5.992943    14.175634    -12.730197    -0.947258    11.062712    11.798323    2.959979    -16.091724    -7.148942    -5.639428    -20.273575    11.595590    -0.281253    -46.352638    -4.166725    6.451283    -45.820885    -7.621555    -2.136832    -5.774756    28.866537    -24.935181    41.640320    4.405352    -24.750406    100.786041    18.110489    -24.797884    32.218510    55.166435    -30.116802    28.290943    -32.482052    38.856255    4.175271    -13.525355    -5.620084    42.925579    0.000000    0.000000    0.000000    -43.240025    -20.134039    -25.067085    5.684613    49.097187    -6.525927    27.178532    -12.054805    8.937885    0.000000    0.000000    0.000000    
23.624674    129.310715    13.302641    6.343745    4.703697    -60.985336    0.313190    4.688858    -0.883339    0.185049    -3.020412    -0.286530    18.855757    6.084237    14.172522    -12.809156    -1.107896    11.041841    11.815628    2.950198    -16.089363    -7.157620    -5.676323    -20.294352    11.571694    -0.300180    -46.296085    -4.235186    6.441139    -45.749027    -7.619569    -2.150651    -5.784991    28.869335    -24.962719    41.624035    4.549710    -24.666021    100.921127    17.793175    -24.978184    32.165359    55.176720    -30.146090    28.314686    -32.444183    38.842579    4.163007    -13.550920    -5.603883    42.918266    0.000000    0.000000    0.000000    -43.233627    -20.157648    -25.082222    5.701029    49.072838    -6.513044    27.160370    -12.065041    8.904133    0.000000    0.000000    0.000000    
23.638018    129.326965    13.291773    6.361670    4.706656    -60.983761    0.308574    4.690642    -0.897579    0.158855    -3.013403    -0.291997    18.882227    6.039515    14.172386    -12.801178    -1.066454    11.037133    11.842317    2.945171    -16.084949    -7.164791    -5.687295    -20.312567    11.579729    -0.339833    -46.250683    -4.242878    6.403030    -45.750454    -7.598302    -2.161194    -5.791688    28.867838    -24.968954    41.605560    4.554510    -24.664795    100.946365    17.799686    -24.984217    32.156040    55.162842    -30.156296    28.305376    -32.428135    38.812443    4.163428    -13.566434    -5.596549    42.910580    0.000000    0.000000    0.000000    -43.241043    -20.166779    -25.077978    5.742053    49.054783    -6.554893    27.137623    -12.060327    8.888427    0.000000    0.000000    0.000000    
23.655231    129.338440    13.280125    6.393680    4.711613    -60.994091    0.278231    4.682467    -0.900431    0.173048    -3.013504    -0.293159    18.872499    6.027376    14.170238    -12.780107    -1.073489    11.036121    11.835152    2.938025    -16.094337    -7.160130    -5.693022    -20.313150    11.582656    -0.368835    -46.219921    -4.227266    6.365111    -45.749676    -7.601782    -2.158663    -5.801638    28.880180    -24.976969    41.597359    4.538398    -24.655613    100.967026    17.780142    -24.961834    32.171322    55.154995    -30.168283    28.305191    -32.423107    38.782600    4.161139    -13.583487    -5.598845    42.943489    0.000000    0.000000    0.000000    -43.254318    -20.202873    -25.075253    5.761749    49.047985    -6.566221    27.123825    -12.065516    8.871188    0.000000    0.000000    0.000000    
